<svg width="329" height="270" viewBox="0 0 329 270" fill="none" xmlns="http://www.w3.org/2000/svg">
<path d="M222.405 5.39428C226.352 4.5975 229.365 3.98905 231.808 3.70023C234.262 3.41018 236.219 3.4318 238.048 3.942C241.167 4.81216 243.931 6.64702 245.943 9.18445C247.123 10.6723 247.902 12.4678 248.587 14.8416C249.268 17.2053 249.876 20.2192 250.672 24.166L300.003 268.533C300.8 272.48 301.409 275.494 301.698 277.937C301.988 280.39 301.966 282.347 301.456 284.176C300.586 287.296 298.75 290.059 296.213 292.071C294.725 293.251 292.929 294.03 290.555 294.715C288.192 295.396 285.178 296.004 281.231 296.801L81.2833 337.165C77.3364 337.962 74.3228 338.57 71.8798 338.859C69.4264 339.149 67.4693 339.127 65.6402 338.617C62.5211 337.747 59.7575 335.912 57.7455 333.374C56.5657 331.886 55.7866 330.091 55.1021 327.717C54.4206 325.354 53.8124 322.34 53.0156 318.393L3.68489 74.0257C2.88814 70.0788 2.27964 67.0652 1.99084 64.6222C1.70083 62.1688 1.72238 60.2117 2.23261 58.3826C3.10277 55.2635 4.93796 52.5 7.47525 50.4879C8.96313 49.3081 10.7586 48.529 13.1324 47.8445C15.4961 47.163 18.5098 46.5548 22.4566 45.758L222.405 5.39428Z" fill="white" stroke="url(#paint0_linear_302_3905)" stroke-width="1.80408"/>
<path d="M3.37864 66.581C1.65937 58.0643 7.16975 49.7664 15.6864 48.0471L252.139 0.314229C260.655 -1.40504 268.953 4.10534 270.673 12.622L327.899 296.101C329.618 304.618 324.108 312.916 315.591 314.635L79.1387 362.368C70.6221 364.087 62.3242 358.577 60.6049 350.06L3.37864 66.581Z" fill="url(#paint1_linear_302_3905)" fill-opacity="0.15"/>
<path d="M27.8352 183.015L5.60665 72.9026C4.14048 65.6397 3.40739 62.0082 4.26084 58.9488C5.01156 56.2577 6.59497 53.8733 8.78412 52.1374C11.2729 50.1639 14.9043 49.4308 22.1673 47.9646L223.53 7.31537C230.793 5.84919 234.424 5.11611 237.483 5.96956C240.175 6.72028 242.559 8.30369 244.295 10.4928C246.268 12.9816 247.001 16.613 248.468 23.876L273.076 145.778" stroke="white" stroke-width="1.80408"/>
<rect width="129.652" height="9.15187" rx="4.57594" transform="matrix(-0.980226 0.197879 0.197879 0.980226 159.176 107.773)" fill="#E8E8E8"/>
<rect width="209.273" height="9.15187" rx="4.57594" transform="matrix(-0.980226 0.197879 0.197879 0.980226 239.262 115.327)" fill="#E8E8E8"/>
<rect width="195.24" height="9.15187" rx="4.57594" transform="matrix(-0.980226 0.197879 0.197879 0.980226 227.859 139.763)" fill="#E8E8E8"/>
<rect width="172.36" height="9.15187" rx="4.57594" transform="matrix(-0.980226 0.197879 0.197879 0.980226 210.828 165.957)" fill="#E8E8E8"/>
<rect width="129.652" height="9.15187" rx="4.57594" transform="matrix(-0.980226 0.197879 0.197879 0.980226 177.652 193.253)" fill="#E8E8E8"/>
<rect width="151.006" height="9.15187" rx="4.57594" transform="matrix(-0.980226 0.197879 0.197879 0.980226 200.148 210.658)" fill="#E8E8E8"/>
<path d="M23.2465 77.2712L24.7536 84.7367C24.9655 85.7863 25.3766 86.5138 25.987 86.9191C26.6086 87.3221 27.3765 87.4314 28.2907 87.2469C29.1935 87.0646 29.8476 86.6683 30.253 86.0579C30.6696 85.4452 30.772 84.6141 30.5601 83.5646L29.053 76.0991L30.5935 75.7881L32.0972 83.2367C32.2954 84.2185 32.2653 85.0879 32.007 85.8448C31.7465 86.5904 31.3106 87.1951 30.6996 87.6591C30.0998 88.1208 29.3823 88.436 28.5472 88.6046C27.712 88.7732 26.9228 88.7622 26.1796 88.5716C25.4477 88.3787 24.817 87.9892 24.2876 87.4031C23.7672 86.8034 23.4079 86.0126 23.2097 85.0308L21.706 77.5822L23.2465 77.2712ZM38.8602 86.5579C38.1492 86.7014 37.4876 86.7117 36.8755 86.5886C36.2611 86.4542 35.7469 86.2056 35.3331 85.8428C34.917 85.4688 34.635 85.003 34.4872 84.4455L36.0785 84.1243C36.2171 84.5779 36.5078 84.9127 36.9508 85.1287C37.405 85.3423 37.9481 85.3854 38.5801 85.2578C39.167 85.1393 39.6035 84.9162 39.8897 84.5882C40.1758 84.2603 40.279 83.8989 40.1993 83.5039C40.1173 83.0976 39.8763 82.835 39.4765 82.716C39.0743 82.5858 38.4758 82.501 37.6809 82.4618C36.9561 82.4202 36.3553 82.3536 35.8787 82.2618C35.4111 82.1566 34.9829 81.9552 34.594 81.6579C34.2141 81.347 33.9638 80.8924 33.843 80.2943C33.7473 79.8203 33.8007 79.3573 34.0031 78.9054C34.2055 78.4534 34.5435 78.0622 35.0171 77.7317C35.4884 77.3899 36.0569 77.1518 36.7228 77.0173C37.7498 76.81 38.6317 76.9021 39.3685 77.2937C40.1053 77.6853 40.5874 78.3279 40.8148 79.2217L39.2743 79.5326C39.1425 79.0542 38.8664 78.7047 38.446 78.4842C38.0369 78.2614 37.5333 78.2103 36.9352 78.3311C36.3822 78.4427 35.9659 78.6501 35.6865 78.9531C35.407 79.2562 35.3061 79.5996 35.3835 79.9833C35.445 80.288 35.5922 80.5226 35.8251 80.687C36.067 80.8379 36.3471 80.9457 36.6656 81.0106C36.9931 81.062 37.4369 81.1075 37.9969 81.1471C38.6993 81.1933 39.2774 81.2645 39.7314 81.3608C40.1832 81.4458 40.5911 81.6336 40.9551 81.9242C41.3305 82.2125 41.5808 82.6377 41.706 83.1997C41.8085 83.7076 41.7597 84.1931 41.5595 84.6564C41.3594 85.1196 41.0237 85.5221 40.5524 85.8639C40.0901 86.1922 39.526 86.4235 38.8602 86.5579ZM51.846 78.5804C51.9052 78.8739 51.9509 79.1876 51.9831 79.5218L44.5684 81.0186C44.8094 81.9213 45.2644 82.5753 45.9335 82.9806C46.6116 83.3722 47.3569 83.486 48.1695 83.322C48.8354 83.1876 49.3576 82.9236 49.7362 82.53C50.1239 82.1229 50.3556 81.6415 50.4313 81.0859L52.0903 80.751C52.022 81.6927 51.6724 82.5209 51.0415 83.2355C50.4082 83.9389 49.5386 84.4022 48.4326 84.6255C47.5523 84.8032 46.7225 84.7652 45.943 84.5114C45.1749 84.2554 44.5204 83.8061 43.9796 83.1636C43.4365 82.5097 43.0681 81.7032 42.8745 80.7439C42.6808 79.7846 42.7029 78.9051 42.9408 78.1053C43.1787 77.3056 43.6032 76.6444 44.2141 76.1217C44.8341 75.5854 45.5955 75.2262 46.4984 75.0439C47.3787 74.8662 48.1961 74.9009 48.9507 75.1479C49.7053 75.3949 50.3315 75.8205 50.8294 76.4248C51.3362 77.0155 51.6751 77.734 51.846 78.5804ZM50.1897 78.58C50.0713 77.9932 49.8401 77.5172 49.4962 77.152C49.1501 76.7755 48.7297 76.5257 48.2349 76.4024C47.7492 76.2655 47.2355 76.2517 46.6938 76.3611C45.9151 76.5183 45.2994 76.901 44.8466 77.5092C44.4051 78.1151 44.2338 78.8662 44.3325 79.7624L50.1897 78.58ZM53.3687 78.6078C53.1774 77.6598 53.2018 76.7916 53.4419 76.0031C53.6799 75.2033 54.0919 74.5388 54.678 74.0093C55.2754 73.4777 55.9917 73.1275 56.8268 72.9589C57.5491 72.8131 58.2548 72.8468 58.9438 73.0601C59.6306 73.2621 60.1923 73.6009 60.629 74.0765L59.6379 69.1673L61.1953 68.8529L63.7242 81.38L62.1668 81.6944L61.8148 79.9508C61.6217 80.5653 61.2626 81.1135 60.7373 81.5954C60.2098 82.066 59.5454 82.3822 58.7441 82.5439C57.9203 82.7102 57.1288 82.6586 56.3696 82.389C55.6217 82.1171 54.9819 81.6531 54.4501 80.997C53.9183 80.3409 53.5578 79.5445 53.3687 78.6078ZM61.227 77.039C61.0858 76.3393 60.8217 75.7584 60.4347 75.2962C60.0478 74.834 59.5843 74.5165 59.0444 74.3436C58.5134 74.1571 57.9601 74.122 57.3846 74.2382C56.809 74.3544 56.3115 74.5957 55.8922 74.9623C55.4729 75.3288 55.1746 75.8001 54.9972 76.3762C54.8199 76.9523 54.8018 77.5903 54.9431 78.29C55.0866 79.001 55.353 79.5932 55.7422 80.0667C56.1292 80.5289 56.5881 80.8532 57.1191 81.0396C57.6477 81.2148 58.1999 81.2443 58.7754 81.1281C59.351 81.0119 59.8485 80.7706 60.2678 80.404C60.6961 80.0239 60.9989 79.5458 61.1763 78.9697C61.3514 78.3823 61.3683 77.7388 61.227 77.039ZM70.857 72.0823C71.0614 71.4655 71.433 70.9206 71.9718 70.4478C72.5106 69.9749 73.1694 69.6598 73.9481 69.5026C74.7832 69.334 75.5736 69.38 76.3192 69.6406C77.0648 69.9012 77.7023 70.3539 78.2319 70.9987C78.7591 71.6323 79.1184 72.423 79.3098 73.371C79.4989 74.3077 79.4756 75.1816 79.24 75.9927C79.0044 76.8037 78.589 77.4807 77.9939 78.0237C77.41 78.5644 76.7062 78.9179 75.8823 79.0842C75.081 79.246 74.3404 79.2134 73.6603 78.9866C72.9915 78.7575 72.4501 78.4028 72.036 77.9226L72.3812 79.6324L70.8407 79.9434L68.3118 67.4162L69.8523 67.1053L70.857 72.0823ZM77.7354 73.6889C77.5942 72.9891 77.3301 72.4082 76.9431 71.946C76.5562 71.4838 76.0927 71.1663 75.5528 70.9934C75.0241 70.8182 74.472 70.7887 73.8964 70.9049C73.3321 71.0188 72.8358 71.2658 72.4075 71.6459C71.9882 72.0125 71.6853 72.4906 71.499 73.0803C71.3216 73.6564 71.3024 74.2886 71.4414 74.9771C71.5827 75.6768 71.8479 76.2634 72.2371 76.7368C72.6354 77.1967 73.0999 77.5199 73.6309 77.7064C74.1709 77.8793 74.723 77.9088 75.2873 77.7948C75.8629 77.6787 76.3603 77.4373 76.7796 77.0707C77.2079 76.6906 77.5108 76.2125 77.6881 75.6364C77.8632 75.049 77.879 74.3999 77.7354 73.6889ZM88.3983 66.7441L85.5663 81.5163L83.975 81.8375L84.9011 76.9993L79.3076 68.5793L81.0174 68.2341L85.4464 75.1626L86.807 67.0653L88.3983 66.7441ZM103.041 61.1629L105.423 72.9621L103.883 73.2731L102.803 67.9237L96.7934 69.1369L97.8733 74.4863L96.3328 74.7973L93.9508 62.9981L95.4913 62.6871L96.5371 67.8672L102.547 66.6541L101.501 61.4739L103.041 61.1629ZM114.267 71.177L110.482 66.9196L108.62 67.2955L109.594 72.1202L108.054 72.4311L105.672 60.6319L109.481 59.863C110.372 59.683 111.154 59.6839 111.825 59.8656C112.507 60.045 113.053 60.3635 113.462 60.8211C113.872 61.2788 114.144 61.8405 114.278 62.5064C114.442 63.3189 114.35 64.0834 114.001 64.7998C113.664 65.5139 113.047 66.0671 112.151 66.4594L116.112 70.8045L114.267 71.177ZM108.371 66.0597L110.639 65.6018C111.474 65.4332 112.06 65.1036 112.395 64.613C112.729 64.1112 112.826 63.516 112.687 62.8276C112.546 62.1279 112.227 61.6283 111.732 61.3289C111.249 61.0272 110.584 60.9618 109.737 61.1327L107.469 61.5906L108.371 66.0597ZM123.129 61.0544L124.233 66.5223C124.324 66.9737 124.485 67.276 124.715 67.4291C124.944 67.571 125.295 67.5941 125.769 67.4984L126.903 67.2694L127.166 68.5729L125.778 68.8531C124.92 69.0263 124.237 68.9586 123.729 68.6502C123.22 68.3418 122.875 67.7361 122.692 66.8333L121.588 61.3654L120.387 61.608L120.13 60.3383L121.332 60.0957L120.861 57.7596L122.401 57.4486L122.873 59.7847L125.293 59.296L125.55 60.5657L123.129 61.0544ZM133.109 67.5317C132.24 67.7071 131.41 67.6691 130.62 67.4176C129.84 67.1639 129.175 66.7169 128.622 66.0766C128.079 65.4228 127.711 64.6162 127.517 63.6569C127.326 62.7089 127.36 61.8328 127.621 61.0285C127.89 60.2106 128.342 59.5381 128.976 59.0108C129.607 58.4723 130.363 58.1142 131.243 57.9365C132.123 57.7588 132.959 57.7956 133.749 58.0471C134.538 58.2873 135.208 58.7275 135.76 59.3678C136.324 60.0058 136.702 60.8044 136.896 61.7637C137.089 62.723 137.046 63.6127 136.765 64.4329C136.493 65.2394 136.036 65.9131 135.394 66.4539C134.751 66.9947 133.99 67.354 133.109 67.5317ZM132.836 66.1774C133.389 66.0658 133.882 65.8312 134.315 65.4737C134.748 65.1161 135.058 64.6482 135.247 64.0698C135.447 63.4891 135.472 62.8264 135.321 62.0815C135.171 61.3367 134.897 60.7343 134.499 60.2744C134.1 59.8145 133.639 59.5082 133.115 59.3556C132.589 59.1917 132.049 59.1656 131.496 59.2772C130.932 59.3912 130.439 59.6257 130.017 59.981C129.604 60.3227 129.309 60.7816 129.132 61.3577C128.955 61.9338 128.941 62.5943 129.092 63.3391C129.244 64.0953 129.508 64.7056 129.884 65.17C130.271 65.6322 130.722 65.9464 131.237 66.1126C131.75 66.2674 132.283 66.2891 132.836 66.1774ZM142.859 60.5599C142.665 59.6006 142.688 58.7268 142.929 57.9383C143.167 57.1386 143.584 56.4728 144.182 55.9411C144.79 55.4072 145.535 55.0513 146.415 54.8736C147.555 54.6435 148.547 54.7309 149.393 55.1358C150.249 55.5385 150.895 56.2068 151.33 57.1408L149.671 57.4757C149.399 56.9433 148.999 56.5602 148.47 56.3263C147.953 56.0902 147.355 56.0404 146.678 56.1771C145.798 56.3548 145.148 56.8031 144.73 57.5219C144.309 58.2294 144.21 59.1361 144.433 60.2421C144.659 61.3594 145.104 62.1681 145.769 62.6682C146.433 63.1682 147.206 63.3294 148.086 63.1517C148.763 63.015 149.296 62.7431 149.683 62.336C150.071 61.9288 150.29 61.4148 150.341 60.7937L152 60.4588C151.943 61.4569 151.6 62.319 150.972 63.0449C150.341 63.7596 149.467 64.2297 148.349 64.4552C147.469 64.6329 146.645 64.5937 145.877 64.3377C145.12 64.0794 144.477 63.6279 143.947 62.983C143.417 62.3382 143.055 61.5305 142.859 60.5599ZM158.734 62.3589C157.865 62.5343 157.035 62.4963 156.244 62.2448C155.465 61.9911 154.799 61.5441 154.247 60.9038C153.704 60.25 153.335 59.4434 153.142 58.4841C152.95 57.5361 152.985 56.66 153.245 55.8557C153.515 55.0378 153.966 54.3653 154.6 53.838C155.231 53.2995 155.987 52.9414 156.867 52.7637C157.747 52.586 158.583 52.6228 159.374 52.8743C160.162 53.1145 160.832 53.5547 161.385 54.195C161.948 54.833 162.326 55.6316 162.52 56.5909C162.714 57.5502 162.67 58.4399 162.389 59.26C162.118 60.0666 161.66 60.7403 161.018 61.2811C160.375 61.8219 159.614 62.1812 158.734 62.3589ZM158.46 61.0046C159.013 60.893 159.506 60.6584 159.939 60.3009C160.372 59.9433 160.683 59.4754 160.871 58.897C161.071 58.3163 161.096 57.6536 160.946 56.9087C160.795 56.1639 160.521 55.5615 160.123 55.1016C159.725 54.6417 159.263 54.3354 158.739 54.1828C158.213 54.0189 157.673 53.9928 157.12 54.1044C156.556 54.2183 156.063 54.4529 155.641 54.8082C155.229 55.1499 154.934 55.6088 154.756 56.1849C154.579 56.761 154.566 57.4215 154.716 58.1663C154.869 58.9225 155.133 59.5328 155.508 59.9972C155.895 60.4594 156.346 60.7736 156.862 60.9398C157.374 61.0946 157.907 61.1162 158.46 61.0046ZM164.497 47.9992L167.026 60.5264L165.485 60.8374L162.956 48.3102L164.497 47.9992ZM168.663 47.1582L171.192 59.6854L169.651 59.9964L167.122 47.4692L168.663 47.1582ZM181.274 52.4527C181.333 52.7462 181.378 53.06 181.411 53.3941L173.996 54.8909C174.237 55.7936 174.692 56.4476 175.361 56.8529C176.039 57.2445 176.784 57.3583 177.597 57.1943C178.263 57.0599 178.785 56.7959 179.164 56.4023C179.551 55.9952 179.783 55.5138 179.859 54.9582L181.518 54.6233C181.45 55.565 181.1 56.3932 180.469 57.1079C179.836 57.8112 178.966 58.2745 177.86 58.4978C176.98 58.6755 176.15 58.6375 175.371 58.3837C174.602 58.1277 173.948 57.6784 173.407 57.0359C172.864 56.3821 172.496 55.5755 172.302 54.6162C172.108 53.6569 172.13 52.7774 172.368 51.9777C172.606 51.1779 173.031 50.5167 173.642 49.994C174.262 49.4578 175.023 49.0985 175.926 48.9162C176.806 48.7385 177.624 48.7732 178.378 49.0202C179.133 49.2672 179.759 49.6929 180.257 50.2971C180.764 50.8878 181.103 51.6063 181.274 52.4527ZM179.617 52.4523C179.499 51.8655 179.268 51.3895 178.924 51.0243C178.578 50.6478 178.157 50.398 177.662 50.2747C177.177 50.1378 176.663 50.124 176.121 50.2334C175.343 50.3906 174.727 50.7733 174.274 51.3815C173.833 51.9874 173.661 52.7385 173.76 53.6348L179.617 52.4523ZM182.8 52.497C182.606 51.5377 182.629 50.6639 182.869 49.8754C183.107 49.0757 183.525 48.4099 184.122 47.8782C184.731 47.3443 185.476 46.9884 186.356 46.8107C187.496 46.5806 188.488 46.668 189.334 47.0729C190.19 47.4756 190.836 48.1439 191.271 49.0779L189.612 49.4128C189.34 48.8804 188.94 48.4973 188.411 48.2634C187.894 48.0273 187.296 47.9775 186.619 48.1142C185.739 48.2919 185.089 48.7402 184.671 49.459C184.25 50.1665 184.151 51.0732 184.374 52.1792C184.6 53.2965 185.045 54.1052 185.709 54.6052C186.374 55.1053 187.147 55.2665 188.027 55.0888C188.704 54.9521 189.237 54.6802 189.624 54.2731C190.012 53.8659 190.231 53.3518 190.282 52.7308L191.941 52.3959C191.884 53.394 191.541 54.2561 190.913 54.982C190.282 55.6966 189.407 56.1667 188.29 56.3923C187.41 56.57 186.586 56.5308 185.817 56.2748C185.061 56.0165 184.417 55.5649 183.888 54.9201C183.358 54.2753 182.996 53.4676 182.8 52.497ZM194.86 46.5738L195.964 52.0418C196.055 52.4932 196.216 52.7955 196.447 52.9486C196.675 53.0905 197.026 53.1135 197.5 53.0178L198.635 52.7889L198.898 54.0924L197.51 54.3726C196.652 54.5458 195.969 54.4781 195.46 54.1697C194.951 53.8613 194.606 53.2556 194.424 52.3528L193.32 46.8848L192.118 47.1275L191.862 45.8578L193.064 45.6152L192.592 43.279L194.133 42.9681L194.604 45.3042L197.025 44.8155L197.281 46.0852L194.86 46.5738ZM31.4253 106.091L29.4785 106.484L31.095 114.491L29.5545 114.802L27.938 106.795L26.7361 107.038L26.4798 105.768L27.6817 105.526L27.5484 104.865C27.3388 103.827 27.4514 103.017 27.8862 102.436C28.3299 101.842 29.1443 101.425 30.3293 101.185L30.589 102.472C29.9119 102.609 29.4596 102.841 29.2321 103.169C29.0136 103.483 28.9659 103.945 29.0889 104.554L29.2222 105.215L31.169 104.822L31.4253 106.091ZM42.294 107.033C42.3533 107.327 42.399 107.64 42.4312 107.975L35.0165 109.471C35.2575 110.374 35.7125 111.028 36.3816 111.433C37.0597 111.825 37.805 111.939 38.6176 111.775C39.2834 111.64 39.8057 111.376 40.1843 110.983C40.5719 110.576 40.8037 110.094 40.8794 109.539L42.5384 109.204C42.4701 110.145 42.1205 110.974 41.4896 111.688C40.8563 112.392 39.9867 112.855 38.8807 113.078C38.0004 113.256 37.1706 113.218 36.3911 112.964C35.6229 112.708 34.9685 112.259 34.4276 111.616C33.8846 110.962 33.5162 110.156 33.3225 109.197C33.1289 108.237 33.151 107.358 33.3889 106.558C33.6268 105.758 34.0513 105.097 34.6622 104.574C35.2822 104.038 36.0436 103.679 36.9465 103.497C37.8268 103.319 38.6442 103.354 39.3988 103.601C40.1534 103.848 40.7796 104.273 41.2775 104.878C41.7843 105.468 42.1232 106.187 42.294 107.033ZM40.6378 107.033C40.5194 106.446 40.2882 105.97 39.9443 105.605C39.5982 105.228 39.1777 104.978 38.683 104.855C38.1973 104.718 37.6836 104.704 37.1419 104.814C36.3632 104.971 35.7475 105.354 35.2947 105.962C34.8532 106.568 34.6818 107.319 34.7805 108.215L40.6378 107.033ZM52.7917 104.914C52.851 105.207 52.8967 105.521 52.9289 105.855L45.5142 107.352C45.7552 108.255 46.2102 108.909 46.8793 109.314C47.5574 109.706 48.3027 109.82 49.1153 109.656C49.7811 109.521 50.3034 109.257 50.682 108.864C51.0696 108.456 51.3014 107.975 51.3771 107.419L53.0361 107.085C52.9678 108.026 52.6182 108.854 51.9873 109.569C51.354 110.272 50.4844 110.736 49.3784 110.959C48.4981 111.137 47.6683 111.099 46.8888 110.845C46.1206 110.589 45.4662 110.14 44.9253 109.497C44.3823 108.843 44.0139 108.037 43.8202 107.077C43.6266 106.118 43.6487 105.239 43.8866 104.439C44.1245 103.639 44.549 102.978 45.1599 102.455C45.7799 101.919 46.5413 101.56 47.4442 101.377C48.3245 101.2 49.1419 101.234 49.8965 101.481C50.6511 101.728 51.2773 102.154 51.7752 102.758C52.282 103.349 52.6209 104.068 52.7917 104.914ZM51.1355 104.914C51.0171 104.327 50.7859 103.851 50.442 103.486C50.0959 103.109 49.6754 102.859 49.1807 102.736C48.695 102.599 48.1813 102.585 47.6396 102.695C46.8609 102.852 46.2452 103.235 45.7924 103.843C45.3509 104.449 45.1795 105.2 45.2782 106.096L51.1355 104.914ZM54.3145 104.941C54.1231 103.993 54.1475 103.125 54.3877 102.337C54.6256 101.537 55.0376 100.872 55.6238 100.343C56.2212 99.8112 56.9374 99.4611 57.7726 99.2925C58.4949 99.1467 59.2005 99.1804 59.8896 99.3937C60.5764 99.5956 61.1381 99.9345 61.5747 100.41L60.5837 95.5008L62.1411 95.1864L64.67 107.714L63.1126 108.028L62.7606 106.284C62.5675 106.899 62.2083 107.447 61.6831 107.929C61.1556 108.4 60.4912 108.716 59.6899 108.877C58.866 109.044 58.0745 108.992 57.3154 108.723C56.5675 108.451 55.9277 107.987 55.3959 107.331C54.8641 106.674 54.5036 105.878 54.3145 104.941ZM62.1728 103.373C62.0315 102.673 61.7674 102.092 61.3805 101.63C60.9936 101.168 60.5301 100.85 59.9901 100.677C59.4592 100.491 58.9059 100.456 58.3303 100.572C57.7548 100.688 57.2573 100.929 56.838 101.296C56.4187 101.662 56.1204 102.134 55.943 102.71C55.7657 103.286 55.7476 103.924 55.8889 104.624C56.0324 105.335 56.2988 105.927 56.688 106.4C57.0749 106.862 57.5339 107.187 58.0649 107.373C58.5935 107.548 59.1457 107.578 59.7212 107.462C60.2968 107.345 60.7942 107.104 61.2136 106.738C61.6419 106.357 61.9447 105.879 62.1221 105.303C62.2971 104.716 62.314 104.072 62.1728 103.373ZM67.2896 99.3269C67.494 98.7101 67.8656 98.1653 68.4044 97.6924C68.9432 97.2195 69.602 96.9045 70.3807 96.7473C71.2158 96.5787 72.0062 96.6247 72.7518 96.8853C73.4974 97.1458 74.1349 97.5985 74.6645 98.2434C75.1917 98.8769 75.551 99.6677 75.7424 100.616C75.9315 101.552 75.9082 102.426 75.6726 103.237C75.437 104.048 75.0216 104.725 74.4265 105.268C73.8426 105.809 73.1388 106.163 72.3149 106.329C71.5136 106.491 70.773 106.458 70.0929 106.231C69.4241 106.002 68.8827 105.647 68.4686 105.167L68.8138 106.877L67.2733 107.188L64.7444 94.6609L66.2849 94.3499L67.2896 99.3269ZM74.168 100.933C74.0268 100.234 73.7627 99.6528 73.3757 99.1906C72.9888 98.7285 72.5253 98.4109 71.9854 98.238C71.4567 98.0629 70.9046 98.0334 70.329 98.1496C69.7647 98.2635 69.2684 98.5105 68.8401 98.8906C68.4208 99.2571 68.1179 99.7352 67.9316 100.325C67.7542 100.901 67.735 101.533 67.874 102.222C68.0153 102.921 68.2805 103.508 68.6697 103.981C69.068 104.441 69.5325 104.765 70.0635 104.951C70.6035 105.124 71.1556 105.153 71.7199 105.039C72.2955 104.923 72.7929 104.682 73.2122 104.315C73.6406 103.935 73.9434 103.457 74.1207 102.881C74.2958 102.294 74.3116 101.644 74.168 100.933ZM77.1945 100.323C77.0032 99.3745 77.0276 98.5063 77.2678 97.7178C77.5057 96.9181 77.9177 96.2535 78.5038 95.7241C79.1012 95.1924 79.8118 94.8434 80.6357 94.6771C81.4483 94.513 82.1889 94.5456 82.8577 94.7747C83.5265 95.0038 84.0611 95.3539 84.4616 95.8251L84.1199 94.1323L85.6773 93.8179L87.55 103.095L85.9926 103.409L85.644 101.682C85.4487 102.286 85.0827 102.829 84.5462 103.314C84.0187 103.784 83.3543 104.1 82.553 104.262C81.7291 104.428 80.9433 104.376 80.1954 104.104C79.4475 103.832 78.8077 103.368 78.2759 102.712C77.7441 102.056 77.3836 101.259 77.1945 100.323ZM85.0528 98.7538C84.9116 98.0541 84.6475 97.4731 84.2605 97.0109C83.8736 96.5487 83.4101 96.2312 82.8702 96.0583C82.3392 95.8719 81.7859 95.8367 81.2104 95.9529C80.6348 96.0691 80.1374 96.3105 79.718 96.677C79.2987 97.0436 79.0004 97.5149 78.823 98.091C78.6457 98.6671 78.6276 99.305 78.7689 100.005C78.9124 100.716 79.1788 101.308 79.568 101.781C79.955 102.244 80.4139 102.568 80.9449 102.754C81.4736 102.93 82.0257 102.959 82.6013 102.843C83.1768 102.727 83.6743 102.485 84.0936 102.119C84.5219 101.739 84.8248 101.261 85.0021 100.684C85.1772 100.097 85.1941 99.4535 85.0528 98.7538ZM88.638 98.03C88.4443 97.0708 88.4676 96.1969 88.7078 95.4084C88.9457 94.6087 89.3633 93.943 89.9607 93.4113C90.5694 92.8773 91.3139 92.5215 92.1942 92.3437C93.3341 92.1136 94.3266 92.201 95.1718 92.606C96.0283 93.0086 96.6741 93.6769 97.1093 94.6109L95.4503 94.9458C95.1784 94.4134 94.7781 94.0303 94.2493 93.7964C93.7318 93.5603 93.1345 93.5106 92.4573 93.6472C91.577 93.825 90.9276 94.2732 90.5089 94.992C90.0879 95.6995 89.9891 96.6062 90.2123 97.7122C90.4379 98.8295 90.883 99.6382 91.5478 100.138C92.2125 100.638 92.985 100.8 93.8653 100.622C94.5424 100.485 95.0748 100.213 95.4625 99.8061C95.8501 99.399 96.0693 98.8849 96.1202 98.2638L97.7792 97.9289C97.7222 98.9271 97.3795 99.7891 96.7508 100.515C96.1198 101.23 95.2457 101.7 94.1284 101.925C93.2482 102.103 92.4239 102.064 91.6558 101.808C90.8989 101.55 90.2557 101.098 89.7262 100.453C89.1966 99.8083 88.8339 99.0006 88.638 98.03ZM105.616 99.4477L101.15 96.0857L101.977 100.182L100.436 100.493L97.9072 87.9663L99.4477 87.6553L100.934 95.0192L103.676 90.1845L105.826 89.7505L102.391 95.2537L107.715 99.0239L105.616 99.4477ZM112.143 93.2675C111.951 92.3195 111.976 91.4513 112.216 90.6628C112.454 89.863 112.866 89.1985 113.452 88.669C114.049 88.1374 114.76 87.7883 115.584 87.622C116.397 87.458 117.137 87.4905 117.806 87.7196C118.475 87.9488 119.009 88.2989 119.41 88.7701L119.068 87.0772L120.626 86.7628L122.498 96.0397L120.941 96.3541L120.592 94.6274C120.397 95.2306 120.031 95.7743 119.494 96.2585C118.967 96.7291 118.303 97.0453 117.501 97.207C116.677 97.3733 115.892 97.3206 115.144 97.0487C114.396 96.7768 113.756 96.3128 113.224 95.6567C112.692 95.0006 112.332 94.2042 112.143 93.2675ZM120.001 91.6987C119.86 90.999 119.596 90.4181 119.209 89.9559C118.822 89.4937 118.358 89.1762 117.818 89.0033C117.287 88.8168 116.734 88.7817 116.159 88.8979C115.583 89.0141 115.086 89.2554 114.666 89.622C114.247 89.9885 113.949 90.4598 113.771 91.0359C113.594 91.612 113.576 92.25 113.717 92.9497C113.861 93.6607 114.127 94.2529 114.516 94.7264C114.903 95.1886 115.362 95.5129 115.893 95.6993C116.422 95.8745 116.974 95.904 117.549 95.7878C118.125 95.6716 118.623 95.4302 119.042 95.0637C119.47 94.6836 119.773 94.2055 119.95 93.6294C120.125 93.042 120.142 92.3985 120.001 91.6987ZM127.26 86.7449L125.313 87.1379L126.93 95.1451L125.389 95.4561L123.773 87.4489L122.571 87.6915L122.315 86.4219L123.517 86.1792L123.383 85.519C123.174 84.4807 123.286 83.671 123.721 83.09C124.165 82.4953 124.979 82.0784 126.164 81.8392L126.424 83.1257C125.747 83.2624 125.294 83.4947 125.067 83.8225C124.849 84.1368 124.801 84.5986 124.924 85.208L125.057 85.8682L127.004 85.4752L127.26 86.7449ZM130.935 86.003L132.039 91.4709C132.13 91.9223 132.291 92.2246 132.522 92.3777C132.75 92.5196 133.101 92.5426 133.575 92.4469L134.71 92.218L134.973 93.5215L133.585 93.8017C132.727 93.9749 132.044 93.9072 131.535 93.5988C131.026 93.2904 130.681 92.6847 130.499 91.7819L129.395 86.3139L128.193 86.5566L127.937 85.2869L129.139 85.0443L128.667 82.7082L130.208 82.3972L130.679 84.7333L133.1 84.2446L133.356 85.5143L130.935 86.003ZM144.295 86.4421C144.355 86.7355 144.4 87.0493 144.432 87.3834L137.018 88.8802C137.259 89.783 137.714 90.4369 138.383 90.8422C139.061 91.2338 139.806 91.3477 140.619 91.1836C141.285 91.0492 141.807 90.7852 142.186 90.3917C142.573 89.9845 142.805 89.5032 142.881 88.9476L144.54 88.6127C144.471 89.5544 144.122 90.3825 143.491 91.0972C142.858 91.8005 141.988 92.2639 140.882 92.4871C140.002 92.6648 139.172 92.6268 138.392 92.3731C137.624 92.117 136.97 91.6677 136.429 91.0252C135.886 90.3714 135.517 89.5648 135.324 88.6055C135.13 87.6462 135.152 86.7667 135.39 85.967C135.628 85.1672 136.053 84.506 136.663 83.9833C137.283 83.4471 138.045 83.0878 138.948 82.9056C139.828 82.7278 140.645 82.7625 141.4 83.0095C142.155 83.2565 142.781 83.6822 143.279 84.2864C143.786 84.8771 144.124 85.5956 144.295 86.4421ZM142.639 86.4417C142.521 85.8548 142.289 85.3788 141.946 85.0136C141.599 84.6372 141.179 84.3873 140.684 84.264C140.199 84.1271 139.685 84.1134 139.143 84.2227C138.364 84.3799 137.749 84.7626 137.296 85.3708C136.854 85.9768 136.683 86.7278 136.782 87.6241L142.639 86.4417ZM147.309 82.9443C147.473 82.3592 147.773 81.8698 148.21 81.4761C148.659 81.0802 149.245 80.8093 149.967 80.6635L150.288 82.2548L149.882 82.3368C148.155 82.6854 147.481 83.7964 147.859 85.6698L148.877 90.7145L147.337 91.0255L145.464 81.7486L147.005 81.4377L147.309 82.9443ZM165.621 82.137C165.681 82.4304 165.726 82.7442 165.759 83.0783L158.344 84.5751C158.585 85.4778 159.04 86.1318 159.709 86.5371C160.387 86.9287 161.132 87.0425 161.945 86.8785C162.611 86.7441 163.133 86.4801 163.512 86.0865C163.899 85.6794 164.131 85.198 164.207 84.6424L165.866 84.3075C165.797 85.2492 165.448 86.0774 164.817 86.7921C164.184 87.4954 163.314 87.9587 162.208 88.182C161.328 88.3597 160.498 88.3217 159.718 88.0679C158.95 87.8119 158.296 87.3626 157.755 86.7201C157.212 86.0663 156.843 85.2597 156.65 84.3004C156.456 83.3411 156.478 82.4616 156.716 81.6619C156.954 80.8621 157.379 80.2009 157.99 79.6782C158.61 79.142 159.371 78.7827 160.274 78.6004C161.154 78.4227 161.972 78.4574 162.726 78.7044C163.481 78.9514 164.107 79.3771 164.605 79.9813C165.112 80.572 165.45 81.2905 165.621 82.137ZM163.965 82.1365C163.847 81.5497 163.616 81.0737 163.272 80.7085C162.925 80.332 162.505 80.0822 162.01 79.9589C161.525 79.822 161.011 79.8083 160.469 79.9176C159.69 80.0748 159.075 80.4575 158.622 81.0657C158.181 81.6716 158.009 82.4227 158.108 83.319L163.965 82.1365ZM171.829 84.6012L173.121 76.1654L174.764 75.8339L172.997 85.8455L171.202 86.2078L165.69 77.6657L167.349 77.3308L171.829 84.6012ZM185.608 78.1022C185.668 78.3956 185.713 78.7094 185.745 79.0435L178.331 80.5403C178.572 81.4431 179.027 82.097 179.696 82.5023C180.374 82.8939 181.119 83.0078 181.932 82.8437C182.598 82.7093 183.12 82.4453 183.499 82.0517C183.886 81.6446 184.118 81.1633 184.194 80.6077L185.853 80.2728C185.784 81.2144 185.435 82.0426 184.804 82.7573C184.171 83.4606 183.301 83.924 182.195 84.1472C181.315 84.3249 180.485 84.2869 179.705 84.0332C178.937 83.7771 178.283 83.3278 177.742 82.6853C177.199 82.0315 176.83 81.2249 176.637 80.2656C176.443 79.3063 176.465 78.4268 176.703 77.6271C176.941 76.8273 177.366 76.1661 177.976 75.6434C178.596 75.1072 179.358 74.7479 180.261 74.5657C181.141 74.3879 181.958 74.4226 182.713 74.6696C183.468 74.9166 184.094 75.3423 184.592 75.9465C185.099 76.5372 185.437 77.2557 185.608 78.1022ZM183.952 78.1018C183.834 77.5149 183.602 77.0389 183.259 76.6737C182.912 76.2973 182.492 76.0474 181.997 75.9241C181.512 75.7872 180.998 75.7735 180.456 75.8828C179.677 76.04 179.062 76.4227 178.609 77.0309C178.167 77.6369 177.996 78.3879 178.095 79.2842L183.952 78.1018ZM191.263 72.327C192.391 72.0992 193.375 72.2589 194.214 72.806C195.05 73.3419 195.598 74.2532 195.858 75.5397L196.962 81.0077L195.438 81.3152L194.379 76.0674C194.192 75.1419 193.818 74.4833 193.258 74.0914C192.695 73.6882 192.012 73.5675 191.211 73.7293C190.399 73.8933 189.801 74.2783 189.418 74.8841C189.047 75.4876 188.959 76.2747 189.155 77.2453L190.19 82.3746L188.65 82.6856L186.777 73.4087L188.318 73.0978L188.584 74.4182C188.793 73.8827 189.131 73.4327 189.598 73.0684C190.076 72.7017 190.631 72.4546 191.263 72.327ZM199.741 72.1131L200.845 77.5811C200.936 78.0325 201.097 78.3348 201.327 78.4879C201.556 78.6297 201.907 78.6528 202.381 78.5571L203.515 78.3282L203.778 79.6317L202.39 79.9119C201.532 80.085 200.849 80.0174 200.34 79.709C199.832 79.4005 199.486 78.7949 199.304 77.892L198.2 72.4241L196.998 72.6667L196.742 71.3971L197.944 71.1545L197.472 68.8183L199.013 68.5073L199.485 70.8435L201.905 70.3548L202.162 71.6244L199.741 72.1131ZM208.959 78.7442C208.248 78.8878 207.587 78.898 206.975 78.7749C206.36 78.6405 205.846 78.392 205.432 78.0292C205.016 77.6551 204.734 77.1893 204.586 76.6319L206.178 76.3106C206.316 76.7643 206.607 77.099 207.05 77.315C207.504 77.5287 208.047 77.5717 208.679 77.4442C209.266 77.3257 209.703 77.1025 209.989 76.7746C210.275 76.4467 210.378 76.0852 210.299 75.6902C210.217 75.2839 209.976 75.0213 209.576 74.9023C209.174 74.7721 208.575 74.6874 207.78 74.6482C207.055 74.6066 206.455 74.5399 205.978 74.4482C205.51 74.3429 205.082 74.1416 204.693 73.8442C204.313 73.5333 204.063 73.0788 203.942 72.4806C203.847 72.0066 203.9 71.5437 204.102 71.0917C204.305 70.6398 204.643 70.2485 205.116 69.918C205.588 69.5762 206.156 69.3381 206.822 69.2037C207.849 68.9964 208.731 69.0885 209.468 69.48C210.205 69.8716 210.687 70.5143 210.914 71.408L209.374 71.719C209.242 71.2405 208.966 70.891 208.545 70.6705C208.136 70.4477 207.633 70.3967 207.034 70.5174C206.481 70.6291 206.065 70.8364 205.786 71.1395C205.506 71.4426 205.405 71.786 205.483 72.1697C205.544 72.4744 205.691 72.7089 205.924 72.8734C206.166 73.0242 206.446 73.1321 206.765 73.197C207.092 73.2483 207.536 73.2938 208.096 73.3335C208.799 73.3796 209.377 73.4508 209.831 73.5471C210.282 73.6321 210.69 73.8199 211.054 74.1105C211.43 74.3989 211.68 74.824 211.805 75.3861C211.908 75.8939 211.859 76.3795 211.659 76.8427C211.459 77.3059 211.123 77.7085 210.652 78.0503C210.189 78.3785 209.625 78.6098 208.959 78.7442ZM219.514 76.5608C219.22 76.62 218.951 76.5686 218.707 76.4064C218.463 76.2443 218.311 76.0165 218.252 75.7231C218.193 75.4297 218.244 75.1609 218.407 74.9167C218.569 74.6726 218.796 74.5209 219.09 74.4617C219.372 74.4047 219.63 74.4584 219.862 74.6228C220.107 74.785 220.258 75.0128 220.318 75.3062C220.377 75.5996 220.325 75.8684 220.163 76.1126C220.012 76.3544 219.796 76.5038 219.514 76.5608ZM223.068 75.8433C222.775 75.9025 222.506 75.8511 222.262 75.6889C222.017 75.5268 221.866 75.299 221.807 75.0056C221.747 74.7122 221.799 74.4434 221.961 74.1992C222.123 73.9551 222.351 73.8034 222.644 73.7441C222.926 73.6872 223.184 73.7409 223.417 73.9053C223.661 74.0675 223.813 74.2952 223.872 74.5887C223.931 74.8821 223.88 75.1509 223.718 75.395C223.567 75.6369 223.35 75.7863 223.068 75.8433ZM226.622 75.1258C226.329 75.185 226.06 75.1335 225.816 74.9714C225.572 74.8093 225.42 74.5815 225.361 74.2881C225.302 73.9946 225.353 73.7258 225.515 73.4817C225.677 73.2375 225.905 73.0858 226.199 73.0266C226.481 72.9697 226.738 73.0234 226.971 73.1878C227.215 73.3499 227.367 73.5777 227.426 73.8711C227.485 74.1646 227.434 74.4334 227.272 74.6775C227.121 74.9194 226.905 75.0688 226.622 75.1258ZM230.177 74.4082C229.883 74.4675 229.614 74.416 229.37 74.2539C229.126 74.0918 228.974 73.864 228.915 73.5705C228.856 73.2771 228.907 73.0083 229.07 72.7642C229.232 72.52 229.46 72.3683 229.753 72.3091C230.035 72.2521 230.293 72.3059 230.525 72.4703C230.77 72.6324 230.921 72.8602 230.981 73.1536C231.04 73.4471 230.988 73.7158 230.826 73.96C230.675 74.2019 230.459 74.3513 230.177 74.4082Z" fill="#9CA3AF"/>
<defs>
<linearGradient id="paint0_linear_302_3905" x1="122.609" y1="26.4606" x2="181.079" y2="316.099" gradientUnits="userSpaceOnUse">
<stop stop-color="#475569" stop-opacity="0.06"/>
<stop offset="1" stop-color="#475569" stop-opacity="0"/>
</linearGradient>
<linearGradient id="paint1_linear_302_3905" x1="133.913" y1="24.1807" x2="197.365" y2="338.501" gradientUnits="userSpaceOnUse">
<stop offset="0.4486" stop-color="#334155" stop-opacity="0"/>
<stop offset="0.957946" stop-color="#334155"/>
</linearGradient>
</defs>
</svg>
